<?xml version="1.0" encoding="iso-8859-1"?>
<!-- Generator: Adobe Illustrator 16.0.0, SVG Export Plug-In . SVG Version: 6.00 Build 0)  -->
<!DOCTYPE svg PUBLIC "-//W3C//DTD SVG 1.1//EN" "http://www.w3.org/Graphics/SVG/1.1/DTD/svg11.dtd">
<svg version="1.1" id="Capa_1" xmlns="http://www.w3.org/2000/svg" xmlns:xlink="http://www.w3.org/1999/xlink" x="0px" y="0px"
	 width="612px" height="612px" viewBox="0 0 612 612" style="enable-background:new 0 0 612 612;" xml:space="preserve">
<g>
	<g id="_x37__4_">
		<g>
			<path d="M535.5,0h-459C34.253,0,0,34.253,0,76.5v459C0,577.747,34.253,612,76.5,612h459c42.247,0,76.5-34.253,76.5-76.5v-459
				C612,34.253,577.747,0,535.5,0z M420.75,325.125H218.293l78.814,78.814c7.478,7.478,7.478,19.584,0,27.042
				c-7.478,7.459-19.584,7.479-27.043,0l-108.19-108.189c-4.571-4.571-6.005-10.863-4.954-16.792
				c-1.052-5.929,0.383-12.221,4.973-16.811l108.19-108.19c7.478-7.478,19.584-7.478,27.043,0c7.478,7.478,7.478,19.584,0,27.043
				l-78.833,78.833H420.75c10.557,0,19.125,8.568,19.125,19.125C439.875,316.557,431.307,325.125,420.75,325.125z"/>
		</g>
	</g>
</g>
<g>
</g>
<g>
</g>
<g>
</g>
<g>
</g>
<g>
</g>
<g>
</g>
<g>
</g>
<g>
</g>
<g>
</g>
<g>
</g>
<g>
</g>
<g>
</g>
<g>
</g>
<g>
</g>
<g>
</g>
</svg>
